<svg width="33" height="33" viewBox="0 0 33 33" fill="none" xmlns="http://www.w3.org/2000/svg">
<path fill-rule="evenodd" clip-rule="evenodd" d="M7.34152 9.97881C7.07104 9.89093 6.78638 10.067 6.74415 10.3482L6.23752 13.723C6.16495 14.2064 6.45251 14.6715 6.91742 14.8225L24.1767 20.4304C24.9832 20.6924 25.8494 20.2511 26.1114 19.4446C26.3838 18.6063 25.896 17.7113 25.0439 17.4858L19.7322 16.0804L18.4041 6.70726C18.349 6.31835 18.0772 5.9948 17.7037 5.87342C17.0777 5.67003 16.4244 6.09884 16.362 6.75407L15.6019 14.7384L8.34571 12.7958L7.64239 10.2921C7.60078 10.1439 7.48787 10.0264 7.34152 9.97881ZM26.1776 23.4521H5.64758V25.0313H26.1776V23.4521Z" fill="#6E7491"/>
</svg>
